<svg xmlns="http://www.w3.org/2000/svg" width="198.202" height="140.373" viewBox="0 0 198.202 140.373">
  <g id="Group_10359" data-name="Group 10359" transform="translate(0)" opacity="0.148">
    <path id="Path_11560" data-name="Path 11560" d="M-374.281,734.453v-.476l43.94-74.983h20.059L-341.8,712.964l5.254-.478A41.461,41.461,0,0,1-306.222,725.1a42.2,42.2,0,0,1,12.615,30.845,42.11,42.11,0,0,1-12.615,30.8,41.461,41.461,0,0,1-30.328,12.617A41.914,41.914,0,0,1-367.4,786.751a42.111,42.111,0,0,1-12.617-30.8A43.849,43.849,0,0,1-374.281,734.453Zm179.775-9.351a42.112,42.112,0,0,1,12.7,30.845,43.009,43.009,0,0,1-2.331,14.225,43.643,43.643,0,0,1-10.366,16.3,41.39,41.39,0,0,1-30.8,12.9c-11.781,0-21.97-4.26-30.566-12.9-8.557-8.6-12.9-18.745-12.9-30.525a40.03,40.03,0,0,1,6.209-21.494v-.476l43.461-74.983h20.577l-31.522,53.969,4.736-.478A41.883,41.883,0,0,1-194.506,725.1Z" transform="translate(380.012 -658.994)" fill="#3897d5"/>
  </g>
</svg>
