<svg id="feminism" xmlns="http://www.w3.org/2000/svg" width="55.232" height="55.232" viewBox="0 0 55.232 55.232">
  <path id="Path_14446" data-name="Path 14446" d="M224.63,4.315a4.315,4.315,0,1,0-4.315,4.315A4.32,4.32,0,0,0,224.63,4.315Zm-4.315,2.158a2.158,2.158,0,1,1,2.158-2.158A2.16,2.16,0,0,1,220.315,6.473Z" transform="translate(-192.699 0)" fill="#fff"/>
  <ellipse id="Ellipse_516" data-name="Ellipse 516" cx="0.661" cy="1.323" rx="0.661" ry="1.323" transform="translate(51.428 43.491)" fill="#fff"/>
  <path id="Path_14447" data-name="Path 14447" d="M53.524,79.135a1.079,1.079,0,0,0-.862,1.259,24.2,24.2,0,0,1,.388,3.352h-11.6a6.107,6.107,0,0,1,.353-3.272c.474-1.715,1.012-3.659-.122-5.493-1.08-1.749-3.3-2.02-5.252-2.26-2.616-.32-3.217-.6-3.217-1.488,0-1.332,2.194-2.153,3.5-2.524A22.66,22.66,0,0,1,40.8,68h5.671a26.612,26.612,0,0,1,2.817,3.752,1.079,1.079,0,1,0,1.834-1.137,28.833,28.833,0,0,0-9.355-9.329L43.636,56.3l1.958.814a1.079,1.079,0,0,0,1.484-.857s1.049-8.1,1.05-8.119a5.562,5.562,0,0,0-2.766-5.222,4.32,4.32,0,0,0,4.864-2.568h0a4.315,4.315,0,1,0-6.295,1.988,5.563,5.563,0,0,0-5.561,1.746l-.026.031-3.8,4.717S32.9,43.124,32.9,43.109a5.569,5.569,0,0,0-10.567,0c0,.015-.009.029-.014.044l-1.633,5.7L16.842,44.09a5.562,5.562,0,0,0-5.563-1.742,4.322,4.322,0,0,0,1.672-5.3h0a4.315,4.315,0,1,0-3.1,5.882A5.56,5.56,0,0,0,7.087,48.15c0,.02,0,.041.006.061l1.047,8.058a1.079,1.079,0,0,0,1.484.857l1.958-.815,1.875,4.978A28,28,0,0,0,0,84.825,1.079,1.079,0,0,0,1.079,85.9H54.153a1.079,1.079,0,0,0,1.079-1.079A26.313,26.313,0,0,0,54.783,80a1.078,1.078,0,0,0-1.259-.862ZM44.251,37.867a2.157,2.157,0,1,1,1.164,2.821A2.16,2.16,0,0,1,44.251,37.867Zm-4.239,7.62a3.412,3.412,0,0,1,5.967,2.471l-.859,6.627-1.687-.7a1.079,1.079,0,0,0-1.424.616l-2.148,5.71a27.5,27.5,0,0,0-3.979-1.667l2.17-5.768a1.079,1.079,0,0,0-.6-1.376L35.8,50.709Zm-6.135,6.76,1.79.744L33.8,57.95c-.618-.149-1.243-.277-1.87-.382V52.247Zm-9.49-8.475a3.412,3.412,0,0,1,6.46,0l1.811,6.318h-1.8a1.079,1.079,0,0,0-1.079,1.079V57.3c-.719-.059-1.441-.09-2.158-.09s-1.439.03-2.158.09V51.168a1.079,1.079,0,0,0-1.079-1.079h-1.8Zm-3.04,8.475H23.3v5.321c-.629.105-1.258.234-1.882.385l-1.868-4.958ZM9.8,40.7a2.157,2.157,0,1,1,1.162-2.821A2.161,2.161,0,0,1,9.8,40.7Zm3.411,13.81a1.079,1.079,0,0,0-1.424-.616l-1.686.7-.861-6.627A3.412,3.412,0,0,1,15.2,45.493l4.215,5.22-1.658.69a1.079,1.079,0,0,0-.595,1.376l2.173,5.768a27.545,27.545,0,0,0-3.979,1.669ZM2.182,83.746a24.827,24.827,0,0,1,2.552-9.81A17.559,17.559,0,0,1,9.9,76.405c1.794,1.37,3.763,4.671,5.259,7.341Zm19.167,0H17.627c-1.713-3.1-4.024-7.227-6.417-9.056a19.053,19.053,0,0,0-5.422-2.679,26.864,26.864,0,0,1,5.856-6.776c1.823,1.035,4.22,1.067,6.367,1.094,2.016.026,4.1.053,4.492,1,.522,1.259-.506,2.485-2.132,4.211-1.285,1.364-2.5,2.651-2.251,4.179.28,1.722,1.7,2.432,2.741,2.95,1.023.511,1.482.794,1.574,1.366a9.288,9.288,0,0,1-1.085,3.71ZM39.72,79.9a9.169,9.169,0,0,0-.489,3.847H23.708a8.883,8.883,0,0,0,.856-4.056c-.28-1.722-1.7-2.432-2.741-2.95-1.023-.511-1.482-.794-1.574-1.365-.077-.477.945-1.561,1.691-2.353,1.626-1.726,3.651-3.873,2.555-6.517-.936-2.261-3.743-2.3-6.458-2.332a16.764,16.764,0,0,1-4.407-.426,24.894,24.894,0,0,1,13.985-4.38A25.241,25.241,0,0,1,44.3,65.839s-3.582,0-3.6,0c-.987.063-9.64.745-9.64,5.392,0,2.9,2.676,3.332,5.112,3.63,1.545.189,3.143.385,3.679,1.252C40.481,77.148,40.128,78.423,39.72,79.9Z" transform="translate(0 -30.672)" fill="#fff"/>
</svg>
