<svg xmlns="http://www.w3.org/2000/svg" width="71.426" height="75.153" viewBox="0 0 71.426 75.153">
  <g id="noun_peaceful_3757039" transform="translate(-2.537 -1)">
    <path id="Path_14763" data-name="Path 14763" d="M36.031,47.062A23.031,23.031,0,1,0,13,24.031,23.031,23.031,0,0,0,36.031,47.062ZM37.243,3.486A20.565,20.565,0,0,1,53.2,35.4L37.243,23.425Zm0,22.969,14.5,10.875a20.553,20.553,0,0,1-14.5,7.245Zm-2.424,18.12a20.553,20.553,0,0,1-14.5-7.245l14.5-10.875ZM15.424,24.031A20.615,20.615,0,0,1,34.819,3.486V23.425L18.858,35.4a20.485,20.485,0,0,1-3.434-11.365Z" transform="translate(2.22 0)" fill="#fff"/>
    <path id="Path_14764" data-name="Path 14764" d="M63.595,33a3.039,3.039,0,0,0-2.733,1.69L55.4,45.615,52.04,48.974l-1.091.547L52.734,46.4a3.537,3.537,0,0,0-5.9-3.879l-5.954,7.938a1.23,1.23,0,0,0-.181.344l-2.424,7.273a1.176,1.176,0,0,0-.052.233L37.01,68a1.212,1.212,0,0,0,1.2,1.362H49.121a1.212,1.212,0,0,0,1.212-1.212V63.389a1.212,1.212,0,0,1,.54-1.009l6.194-4.128a1.212,1.212,0,0,0,.336-.336l4.849-7.273a1.2,1.2,0,0,0,.15-.316l4.114-13.371A3.056,3.056,0,0,0,63.595,33Zm.606,3.243-4.064,13.2L55.52,56.369l-5.992,3.994a3.636,3.636,0,0,0-1.619,3.026V66.94H39.585l1.027-8.215,2.327-6.973,5.835-7.78a1.113,1.113,0,0,1,1.857,1.221l-3.775,6.6a1.212,1.212,0,0,0,1.594,1.7L53.3,51.061a1.212,1.212,0,0,0,.315-.228L57.251,47.2a1.246,1.246,0,0,0,.228-.315l5.55-11.1a.632.632,0,0,1,1.171.463Z" transform="translate(7.311 6.789)" fill="#fff"/>
    <path id="Path_14765" data-name="Path 14765" d="M6.938,50.644l4.849,7.273a1.212,1.212,0,0,0,.336.336l6.194,4.129a1.212,1.212,0,0,1,.539,1.009v4.764a1.212,1.212,0,0,0,1.212,1.212H30.978A1.212,1.212,0,0,0,32.18,68l-1.212-9.7a1.176,1.176,0,0,0-.052-.233L28.492,50.8a1.23,1.23,0,0,0-.181-.344L22.358,42.52a3.537,3.537,0,0,0-5.9,3.879l1.784,3.125-1.091-.547-3.358-3.359L8.329,34.691a3.056,3.056,0,0,0-5.655,2.266L6.788,50.327a1.2,1.2,0,0,0,.15.316ZM5.087,35.682a.618.618,0,0,1,.508-.257.628.628,0,0,1,.565.349l5.55,11.1a1.246,1.246,0,0,0,.228.315l3.636,3.636a1.212,1.212,0,0,0,.315.228l4.849,2.424a1.212,1.212,0,0,0,1.594-1.691l-3.771-6.6a1.113,1.113,0,0,1,1.857-1.221l5.832,7.784,2.324,6.974,1.03,8.215H21.281V63.389a3.636,3.636,0,0,0-1.619-3.03l-5.992-3.994-4.616-6.92-4.062-13.2a.613.613,0,0,1,.1-.561Z" transform="translate(0 6.788)" fill="#fff"/>
  </g>
</svg>
