<svg xmlns="http://www.w3.org/2000/svg" width="55.938" height="70.678" viewBox="0 0 55.938 70.678">
  <g id="innovation_1_" data-name="innovation (1)" transform="translate(-5 0.008)">
    <path id="Path_14292" data-name="Path 14292" d="M60.938,23.409c-.1-17.061-18.651-29.044-34.5-20.7a2.944,2.944,0,0,0-3.768-.1A2.841,2.841,0,0,0,19.824,0h-3.15a2.841,2.841,0,0,0-2.841,2.606,2.944,2.944,0,0,0-3.857.162L7.767,4.994a2.841,2.841,0,0,0-.162,3.842A2.841,2.841,0,0,0,5,11.677v3.15a2.841,2.841,0,0,0,2.606,2.841,2.944,2.944,0,0,0-.677,1.84c0,1.472.751,1.928,3.062,4.24a2.944,2.944,0,0,0,3.857.162,23.685,23.685,0,0,0,1.634,8.3C18.675,40.338,24,40.868,25.55,51.261a4.416,4.416,0,0,0-.265,6.153,4.416,4.416,0,0,0,3.268,7.36h1.619a7.36,7.36,0,0,0,14.426,0h1.619a4.416,4.416,0,0,0,3.268-7.36,4.416,4.416,0,0,0-.324-6.168c1.958-12.63,11.85-13.1,11.776-27.837ZM12.007,21.584l-2.09-2.09a2.841,2.841,0,0,0-1.973-4.769V11.78A2.841,2.841,0,0,0,9.917,7.011l2.09-2.09a2.841,2.841,0,0,0,4.769-1.973h2.944A2.841,2.841,0,0,0,24.49,4.92l2.09,2.09a2.841,2.841,0,0,0,1.973,4.769v2.944a2.841,2.841,0,0,0-1.973,4.769l-2.09,2.09a2.841,2.841,0,0,0-4.769,1.973H16.776a2.841,2.841,0,0,0-4.769-1.973Zm21.212,43.19h8.332a4.416,4.416,0,0,1-8.332,0Zm13-2.944H28.553a1.472,1.472,0,0,1,0-2.944H46.218a1.472,1.472,0,1,1,0,2.944Zm0-5.888H28.553a1.472,1.472,0,0,1,0-2.944H46.218a1.472,1.472,0,1,1,0,2.944ZM28.553,50.054V32.212l8.832-1.1V50.054ZM39.829,28.341c-.545-.5-.942-.383-2.444-.191V22.085h8.832V50.054H40.329C40.329,27.826,40.55,28.959,39.829,28.341Zm9.333,14.132V20.612A1.472,1.472,0,0,0,47.69,19.14H35.913a1.472,1.472,0,0,0-1.472,1.472v7.9l-7.537.927a1.472,1.472,0,0,0-1.3,1.472V42.311c-3.032-5.55-7.36-7.36-8.6-15.81h2.812A2.841,2.841,0,0,0,22.665,23.9a2.944,2.944,0,0,0,3.857-.162l2.223-2.223a2.841,2.841,0,0,0,.147-3.842A2.841,2.841,0,0,0,31.5,14.827v-3.15a2.841,2.841,0,0,0-2.606-2.841,2.826,2.826,0,0,0-.265-3.945A20.712,20.712,0,0,1,57.994,23.439a20.491,20.491,0,0,1-5.108,13.69,29.323,29.323,0,0,0-3.724,5.344Z" transform="translate(0 0)" fill="#fff"/>
    <path id="Path_14293" data-name="Path 14293" d="M21.776,10.888a5.888,5.888,0,1,0-5.888,5.888A5.888,5.888,0,0,0,21.776,10.888Zm-5.888,2.944a2.944,2.944,0,1,1,2.944-2.944A2.944,2.944,0,0,1,15.888,13.832Z" transform="translate(2.36 2.364)" fill="#fff"/>
  </g>
</svg>
