<svg xmlns="http://www.w3.org/2000/svg" width="59.749" height="73.537" viewBox="0 0 59.749 73.537">
  <g id="noun_quality_2869393" transform="translate(-12 0)">
    <path id="Path_14766" data-name="Path 14766" d="M36.931,95.552l-9.716,12.912-.085-7.432a1.116,1.116,0,0,0-.436-.869,1.172,1.172,0,0,0-.965-.214l-8.435,1.858,8.189-9.213A14.6,14.6,0,0,1,24.745,90L14.4,101.637a1.667,1.667,0,0,0-.178,1.9,1.729,1.729,0,0,0,1.721.86,1.062,1.062,0,0,0,.111-.019l8.794-1.938.089,7.76a1.685,1.685,0,0,0,1.188,1.541,1.744,1.744,0,0,0,1.913-.586l10.528-13.99A10.747,10.747,0,0,1,36.931,95.552Z" transform="translate(-0.853 -38.294)" fill="#fff"/>
    <path id="Path_14767" data-name="Path 14767" d="M87.635,101.573l-1.877,0H84.589l4.072,4.581-8.435-1.858a1.167,1.167,0,0,0-.965.214,1.116,1.116,0,0,0-.436.869l-.084,7.431-9.478-12.594a8.8,8.8,0,0,1-1.686,1.551l10.369,13.777a1.726,1.726,0,0,0,1.34.636,1.769,1.769,0,0,0,.542-.086,1.7,1.7,0,0,0,1.19-1.576l.088-7.725,8.794,1.937a1.06,1.06,0,0,0,.111.019,1.724,1.724,0,0,0,1.721-.861,1.676,1.676,0,0,0-.2-1.928Z" transform="translate(-23.648 -42.64)" fill="#fff"/>
    <path id="Path_14768" data-name="Path 14768" d="M49.663,21A16.66,16.66,0,1,0,66.323,37.66,16.661,16.661,0,0,0,49.663,21Zm0,31.023A14.362,14.362,0,1,1,64.025,37.661,14.363,14.363,0,0,1,49.663,52.023Z" transform="translate(-8.936 -8.935)" fill="#fff"/>
    <path id="Path_14769" data-name="Path 14769" d="M63.249,41.277l-4.568-.644-2.037-4.005a1.149,1.149,0,0,0-2.049,0l-2.036,4.005-4.568.644a1.149,1.149,0,0,0-.629,1.973l3.284,3.108-.774,4.379a1.149,1.149,0,0,0,1.654,1.223l4.093-2.089,4.093,2.089a1.149,1.149,0,0,0,1.654-1.223l-.774-4.379,3.284-3.108a1.149,1.149,0,0,0-.629-1.973Zm-4.684,3.836a1.148,1.148,0,0,0-.342,1.035l.48,2.717-2.56-1.307a1.148,1.148,0,0,0-1.045,0l-2.56,1.307.48-2.717a1.148,1.148,0,0,0-.342-1.035l-2-1.893,2.8-.394a1.149,1.149,0,0,0,.864-.617l1.284-2.525L56.9,42.208a1.149,1.149,0,0,0,.864.617l2.8.394Z" transform="translate(-14.894 -15.317)" fill="#fff"/>
    <path id="Path_14770" data-name="Path 14770" d="M46.568,52.692a5.009,5.009,0,0,1,2.2.742V50.9a4.481,4.481,0,0,0-2.724-.448c-1.309.306-2.248,1.562-3.156,2.777-.57.763-1.432,1.916-1.891,1.922h0c-.454,0-1.37-1.173-1.917-1.874-.935-1.2-1.9-2.438-3.223-2.718a2.784,2.784,0,0,0-.582-.059,8.037,8.037,0,0,0-3.437,1.212c-.865.453-2.173,1.137-2.606.936-.378-.173-.675-1.593-.853-2.441-.314-1.5-.639-3.049-1.731-3.883s-2.688-.763-4.244-.7c-.834.035-2.387.1-2.655-.222-.284-.342.088-1.785.31-2.648.375-1.453.762-2.955.167-4.14s-2.065-1.813-3.479-2.41c-.774-.327-2.215-.936-2.315-1.347s.9-1.587,1.444-2.219c.987-1.159,2.008-2.357,1.995-3.694s-1.058-2.5-2.067-3.634c-.555-.624-1.589-1.786-1.5-2.2.089-.4,1.508-1.034,2.27-1.373,1.408-.627,2.863-1.276,3.447-2.489.571-1.185.155-2.673-.246-4.113-.241-.863-.645-2.308-.359-2.666.3-.374,1.848-.341,2.774-.319,1.514.034,3.074.067,4.094-.747,1.063-.848,1.355-2.393,1.638-3.888.163-.858.434-2.3.82-2.481.42-.2,1.786.478,2.6.886C32.705,6.6,34.109,7.3,35.409,7s2.246-1.561,3.154-2.775C39.133,3.457,40,2.3,40.455,2.3h0c.454,0,1.369,1.173,1.916,1.874.935,1.2,1.9,2.437,3.222,2.718,1.3.276,2.681-.451,4.021-1.153.865-.453,2.168-1.134,2.6-.938.379.174.676,1.6.854,2.444.314,1.5.638,3.048,1.731,3.883s2.687.758,4.241.7c.835-.036,2.387-.1,2.656.223.286.342-.087,1.786-.309,2.648-.375,1.453-.762,2.955-.166,4.139s2.065,1.813,3.48,2.411c.774.327,2.214.936,2.314,1.346s-.9,1.587-1.444,2.219c-.987,1.159-2.008,2.357-1.994,3.692s1.059,2.5,2.068,3.637c.555.624,1.588,1.785,1.5,2.2s-1.509,1.036-2.272,1.375c-.178.079-.356.159-.533.24.153.054.307.11.456.177a5.764,5.764,0,0,1,1.851,1.3c1.293-.612,2.462-1.33,2.742-2.594.346-1.564-.858-2.917-2.023-4.226-.626-.7-1.482-1.666-1.487-2.135s.833-1.458,1.446-2.177c1.133-1.329,2.3-2.7,1.927-4.253-.374-1.533-2.04-2.237-3.652-2.919-.886-.375-2.1-.888-2.323-1.329a5.808,5.808,0,0,1,.339-2.531c.417-1.616.889-3.447-.151-4.694-.994-1.192-2.784-1.118-4.516-1.047A6.178,6.178,0,0,1,56.2,9.3a5.8,5.8,0,0,1-.878-2.529c-.351-1.672-.713-3.4-2.143-4.06-1.461-.67-3.072.173-4.631.989a6.088,6.088,0,0,1-2.477.942c-.5-.107-1.3-1.134-1.888-1.884C43.122,1.394,42.024-.007,40.432,0s-2.671,1.454-3.71,2.845c-.567.759-1.343,1.8-1.835,1.913a6.146,6.146,0,0,1-2.516-.9c-1.569-.783-3.191-1.593-4.628-.9S25.984,5.4,25.665,7.085A5.807,5.807,0,0,1,24.851,9.6a6.133,6.133,0,0,1-2.61.246c-1.775-.039-3.614-.08-4.621,1.183s-.508,3.1-.058,4.717a5.9,5.9,0,0,1,.389,2.5c-.218.454-1.428.993-2.311,1.386-1.592.71-3.239,1.443-3.579,2.976-.346,1.565.859,2.919,2.024,4.229.625.7,1.481,1.665,1.486,2.131s-.834,1.46-1.446,2.178c-1.133,1.329-2.3,2.7-1.927,4.253.374,1.534,2.042,2.239,3.654,2.92.886.374,2.1.888,2.321,1.327a5.812,5.812,0,0,1-.339,2.532c-.417,1.615-.889,3.446.15,4.694.995,1.19,2.785,1.116,4.515,1.046a6.149,6.149,0,0,1,2.753.229,5.8,5.8,0,0,1,.877,2.528c.351,1.672.712,3.4,2.141,4.057,1.461.675,3.073-.171,4.633-.988a6.061,6.061,0,0,1,2.477-.941c.5.107,1.3,1.134,1.888,1.884C38.327,56.048,39.421,57.45,41,57.45h.027c1.6-.017,2.669-1.455,3.708-2.844C45.3,53.846,46.076,52.806,46.568,52.692Z" transform="translate(0 0)" fill="#fff"/>
    <path id="Path_14771" data-name="Path 14771" d="M100.237,76.674a3.222,3.222,0,0,0-2.915-4.854l-2.026,0a4.352,4.352,0,0,0,.064-.973c-.108-.983-.394-3.574-2.554-4.529A3.551,3.551,0,0,0,91.351,66q-.083,0-.165,0a3.449,3.449,0,0,0-1.977.766,3.752,3.752,0,0,0-1.268,3.344c0,.084.009.167.009.248v.283c-.3.61-1.167,1.966-1.472,2.444l-.015.024-.586.172a2.285,2.285,0,0,0-1.28-.39H82.3a2.3,2.3,0,0,0-2.3,2.3v6.894a2.3,2.3,0,0,0,2.3,2.3h2.3a2.276,2.276,0,0,0,1.456-.535l.125,0c.2,0,.442-.007.683-.015l.345-.01a3.884,3.884,0,0,0,1.052.473,2.3,2.3,0,0,0,.592.079l6.9,0a3.338,3.338,0,0,0,3.36-3.307c0-.018,0-.036,0-.053a3.258,3.258,0,0,0,.658-1.965c0-.093,0-.184-.012-.273a3.248,3.248,0,0,0,.507-1.744,2.936,2.936,0,0,0-.022-.362ZM84.6,82.085H82.3V75.191h2.3Zm12.724-6.046s.639.491.639,1A1.038,1.038,0,0,1,96.9,78.046a1.575,1.575,0,0,1,.57,1.008A1.037,1.037,0,0,1,96.4,80.064a1.761,1.761,0,0,1,.4,1.008,1.036,1.036,0,0,1-1.062,1.009l-6.892,0c-.37-.1-.643-.393-1-.519a1.722,1.722,0,0,0-.449-.036c-.154,0-.332.005-.512.011V75.38a8.525,8.525,0,0,0,1.085-.356c.137-.289,2.268-3.41,2.268-4.026v-.638c0-.629-.172-1.342.388-1.791A1.171,1.171,0,0,1,91.3,68.3h.05a1.3,1.3,0,0,1,.525.121c.9.4,1.107,1.843,1.2,2.671a13.687,13.687,0,0,1-.741,3.024l4.988,0a.959.959,0,0,1,1.063.911,1.037,1.037,0,0,1-1.063,1.01Z" transform="translate(-28.934 -28.082)" fill="#fff"/>
  </g>
</svg>
