<svg xmlns="http://www.w3.org/2000/svg" width="550.647" height="389.987" viewBox="0 0 550.647 389.987">
  <g id="Group_8028" data-name="Group 8028" opacity="0.08">
    <path id="Path_11560" data-name="Path 11560" d="M-364.09,868.636v-1.322l122.073-208.32h55.728l-87.574,149.939,14.6-1.328c32.618,0,60.7,11.607,84.258,35.051q34.994,35.327,35.048,85.694c0,33.5-11.719,62.136-35.048,85.58-23.555,23.444-51.64,35.051-84.258,35.051-33.724,0-62.253-11.608-85.694-35.051-23.329-23.443-35.051-52.078-35.051-85.58C-380.012,908-374.815,887.987-364.09,868.636Zm499.452-25.979c23.444,23.552,35.274,52.078,35.274,85.694a119.493,119.493,0,0,1-6.475,39.522c-5.678,16.392-15.319,31.551-28.8,45.283-23.438,23.99-51.967,35.826-85.58,35.826-32.729,0-61.037-11.836-84.919-35.826-23.774-23.883-35.826-52.078-35.826-84.8a111.208,111.208,0,0,1,17.249-59.715v-1.322L67.031,658.994H124.2L36.624,808.933l13.158-1.328C83.395,807.605,111.924,819.213,135.362,842.656Z" transform="translate(380.012 -658.994)" fill="#3897d5"/>
  </g>
</svg>
